/* XPM */
static char *east_texture[] = {
"32 32 5 1",
"0 c #180F1E",
"1 c #3A1C40",
"2 c #7C2F71",
"3 c #CB58A7",
"4 c #FFBFE4",
"00000000000000000000000000000000",
"01111111111111111111111111111110",
"01222222222222222222222222222210",
"01233333333333333333333333333210",
"01234444444444444444444444443210",
"01233444444444444444444444433210",
"01233333333333333333333333333210",
"01222333333333333333333333322210",
"01222233333333333333333333222210",
"01222223333333333333333332222210",
"01222222333334444433333322222210",
"01222222333444444444443322222210",
"01222222344444444444444322222210",
"01222222444444444444444422222210",
"01222222344444444444444322222210",
"01222222333444444444443322222210",
"01222222333334444433333322222210",
"01222223333333333333333332222210",
"01222233333333333333333333222210",
"01222333333333333333333333322210",
"01233333333333333333333333333210",
"01234444444444444444444444443210",
"01233444444444444444444444433210",
"01233333333333333333333333333210",
"01222333333333333333333333322210",
"01222222222222222222222222222210",
"01222222222222222222222222222210",
"01222222222222222222222222222210",
"01222222222222222222222222222210",
"01222222222222222222222222222210",
"01111111111111111111111111111110",
"00000000000000000000000000000000"
};
