/* XPM */
static char *e936b8618d3c43549736dc26308b10a7eQjWpIdPnuY5NrVA[] = {
/* columns rows colors chars-per-pixel */
"64 64 198 2 ",
"   c #040201",
".  c #090503",
"X  c #0D0905",
"o  c #0D0C0C",
"O  c #130C05",
"+  c #190F06",
"@  c #140E0A",
"#  c #190F0C",
"$  c #171105",
"%  c #1A1106",
"&  c #16120D",
"*  c #1B130C",
"=  c #1F180E",
"-  c #0F0F11",
";  c #0E1111",
":  c #141414",
">  c #1B1612",
",  c #141A16",
"<  c #1B1915",
"1  c #141419",
"2  c #161A1B",
"3  c #1C1B1B",
"4  c #21160C",
"5  c #23190D",
"6  c #291C0C",
"7  c #211710",
"8  c #241B13",
"9  c #291E15",
"0  c #221D1B",
"q  c #2B1F19",
"w  c #1F211D",
"e  c #2C210D",
"r  c #31220E",
"t  c #272017",
"y  c #2C2214",
"u  c #25221D",
"i  c #2C241B",
"p  c #2E291E",
"a  c #322514",
"s  c #3A2615",
"d  c #362915",
"f  c #3B2B15",
"g  c #32261A",
"h  c #35291C",
"j  c #3B2C1D",
"k  c #3F301E",
"l  c #1D1D22",
"z  c #201F20",
"x  c #1E2024",
"c  c #242323",
"v  c #2A2622",
"b  c #252A25",
"n  c #2D2A23",
"m  c #242529",
"M  c #2A2729",
"N  c #272A2B",
"B  c #2D2D2C",
"V  c #302722",
"C  c #342C23",
"Z  c #3B2E22",
"A  c #322E2B",
"S  c #392F28",
"D  c #2D312C",
"F  c #3E3125",
"G  c #35312D",
"H  c #3C332B",
"J  c #3E382F",
"K  c #2D2E31",
"L  c #342E31",
"P  c #2E3132",
"I  c #2F3438",
"U  c #343333",
"Y  c #3B3632",
"T  c #343A35",
"R  c #3D3935",
"E  c #343738",
"W  c #393738",
"Q  c #36393B",
"!  c #3C3C3C",
"~  c #40250F",
"^  c #412D13",
"/  c #422E1C",
"(  c #4C2F1A",
")  c #44311D",
"_  c #493318",
"`  c #4B341D",
"'  c #533A14",
"]  c #563B1E",
"[  c #593B1D",
"{  c #412F21",
"}  c #422F29",
"|  c #433225",
" . c #4A3524",
".. c #4C3924",
"X. c #43352B",
"o. c #4A362A",
"O. c #45382E",
"+. c #4C3A2D",
"@. c #513623",
"#. c #523B24",
"$. c #593D26",
"%. c #533C2C",
"&. c #5A3E2B",
"*. c #413731",
"=. c #4B3631",
"-. c #433A34",
";. c #4B3D33",
":. c #433E3A",
">. c #493F39",
",. c #533E32",
"<. c #583F30",
"1. c #623E2A",
"2. c #3C413E",
"3. c #56422D",
"4. c #5A422D",
"5. c #4D4036",
"6. c #44413E",
"7. c #4B423B",
"8. c #544234",
"9. c #5B4435",
"0. c #5C4836",
"q. c #52443A",
"w. c #5A4639",
"e. c #56483E",
"r. c #5D4A3C",
"t. c #654629",
"y. c #75492C",
"u. c #75512F",
"i. c #624534",
"p. c #694C37",
"a. c #624C3C",
"s. c #714531",
"d. c #714F3E",
"f. c #67503F",
"g. c #68513F",
"h. c #71503F",
"j. c #3D3F41",
"k. c #3E4143",
"l. c #434344",
"z. c #4B4542",
"x. c #474847",
"c. c #4C4945",
"v. c #444749",
"b. c #46494B",
"n. c #4B4B4B",
"m. c #504740",
"M. c #534A44",
"N. c #5C4D43",
"B. c #534E4B",
"V. c #594F49",
"C. c #5D5045",
"Z. c #56514E",
"A. c #5C534C",
"S. c #4B4F51",
"D. c #4D5152",
"F. c #4E5958",
"G. c #525253",
"H. c #595653",
"J. c #545A54",
"K. c #5B5855",
"L. c #535659",
"P. c #55595B",
"I. c #5B5C5C",
"U. c #614E41",
"Y. c #655244",
"T. c #6B5444",
"R. c #6F5846",
"E. c #64554A",
"W. c #695649",
"Q. c #65594D",
"!. c #6C594A",
"~. c #705041",
"^. c #7A5844",
"/. c #755B4A",
"(. c #735D4C",
"). c #645B53",
"_. c #695C53",
"`. c #625F5A",
"'. c #705F52",
"]. c #77604E",
"[. c #7F614E",
"{. c #6D6156",
"}. c #67625D",
"|. c #6C635D",
" X c #756154",
".X c #7C6453",
"XX c #76675C",
"oX c #5D6062",
"OX c #646566",
"+X c #6B6561",
"@X c #676768",
"#X c #716C67",
"$X c #75706C",
"%X c #727272",
"&X c #767778",
"*X c #8B6E5E",
"=X c #817065",
"-X c #937666",
/* pixels */
"| A.7.8.O.j.6.o.X.o.X.Z ` j %...Z |  .X.| H *.6 t >.f H / h < > g 9.r.U.8.( r.8.o.7.k.8.q. .| ..w.o. .O.` ..+.*.) X.| O.e.-.i 3 ",
"C.).8.A.9.C.C.W.T.i.i././.s.9.+XA.g.q.oXB.M.M.$.C | 0.-.l.o.:.X 4.Y. .8.+. .;.w.8.z.K.r.4.8.W.t.Y..X=X X X.XT.Q.Q.T.9.W.%.m.+.> ",
"7.*.g V p a r e j | ( h ..] ;.q.:.o.l.>.;.k.X./ +.3 S 5.G  .| 3 8.X.j h h Z h h y h A i h a V h d h %...%.+.,.,.Y +.Y U P Y p : ",
"8.X.h G Y A a F | a h h g o.) | >. .C >...! -.Y S { = G Y F ) * 3.+.h Z o.| Z X.j Q j H F F j C C  .d h :.i.+.X.Z X.A U l.a X.> ",
"8.7.j A R H { j h Z h Z | C | j | +.$.q.q.@.*.7.7.l.q < C B O.= M.:.F Z j j F g X.V j Z j Y Z ) j | / | Z h 4.X.Z h | Z | Z d & ",
"-.:.! B G j o.h a X.Z o.| j | X.X.G e.w.N.w.=. .Y ;.Z h v i m : i.S Z j S ;. .7.l.*.Z Z | | X.5.f Z | Y | F 5.:.|  .{ Z Z H j O ",
"6.7.B Y A :.{ *.Z Z X.| X.l.k.l.:.| Z -.%.8.l.7.c.+.5.C 8 A h . i.<.Z Y +.Z H ;.Y %.Z ;.-.| l.X.f ) F -.-.O.;.*.| +. .o.Z F X.. ",
"Z.>.C *.V Q F X.Z | J H l.| | ;.X. .+.( :.A.A.0.z.9.q.X.8 h a.5 C.A.j n | Z Y M G | o.X.X.| ..*.| | +.O.-.+.+.o.9.w.8.X.v.Z S O ",
"P.:.Z n V -.| ) *.H ;.R A R X.;._ ..,.8.n.n.Z._.E.n.5.-.3 r.g.5 7.}.:.k.V j X.Y G :.-.l.>.| Z | :.6.-.7.,.7.8.z.7.O.-.:.! O.p 8 ",
"A.q.a h Z S j f o.X.j H >.{ | | | 8.%.9.b.A.I.K.oXn.I.! 2 W.8.@ R {.-.H U J v.l.S ! ! v.6./ +.+.-.-.7.:.m.5.f.z.%.;.X.o.<.o.> g ",
";.E u h 5.H j F | | | X.X.*.:. .-.o.q.N.G.I.z.l.l.G.D.R 3 #Xl.< z.l.c.*.z.b.H.l.b.l.n.M.n.R k.*.:.v.G.H.P.N._.S.c.l.S F :.> o.g ",
"A T K N o.).+.| Z H j Z 6.k.b.n.Z.r.B.q.F z.j.! l.l.-.1 A n.:.9 k.G.R A Z Q Y n.l.l.! Q :.B.U.0.v.n.l.;.! :.5.6.T 6.! F b c Z.< ",
"A n.S :.n J 0.;.:.:.8.n.n.n.-.6.! G 6.X.X.j Y E Y l.S > W.N S 9 l.OXl.n B B U ! U ! Y D U h U l.l.l.Y n.l.k.Q F C h Y B 3 Q :.3 ",
"0 `.{ ! 6.h O.K.S.k.! 6.l.l.:.G k.R h h Z | | H 9 G < M.q.T v ; ! 6.U Q A K U B B B W l.l.Q Q Y U Q Y -.U l.U k.G X.< 9 l.l.! 3 ",
"# X.8.5.Y j.N Y P.! ! G.U 6.Q k.Y | +.F | F Z X.| n K v.N R D - c -.j :.K P M D D U Y T Q ! U U :.Q R G G R P F h 3 J +.B K 2.: ",
"X . & & ; : 1 3 B 3 3 l l 1 , 3 & 7 > * * $ * O 9 @ & 8 1 1 1 2 < + & * l , 1 < < 1 1 1 1 1 1 5 & : @ o @ 1 1 . . % = ; * 0 : 1 ",
"X.r.| o.+.o.+.X.8.5.7.O. .6.C < @ 8 y i a V y g 9 q 9 c 9 9 v > 6 c * > 5 9 8 = > 7 8 > * * X . u ..8.+.| +.&. .+.0.$.@.o. .%.` ",
"/.R.R.Q.K.T.!. XXX{..X^.[.|.H.@ q 8 y y t g p y y h F Z X... ...q.9.3.o.;.+.| |  .| F F h i i   r.+.O.+.| f ' r.8.+.8.[ r.,.r.w.",
"y t | a S | X.Z | %.X./  .;.5.* h y +.F j j F h d t C h Z Z r f a | ;.8.o.| s d d Z a j h | g O m.A A U C 6 a y h h h a d h y | ",
"s Z | F Z j X.|  .C o. .j ( | & 8 8 S Z A a j h e j h | h F ) j  .X.F >.X.d j d i C F g h F g X H.d v P E B | H C C a j h a X.Z ",
"G X.:.+.| X.Z X.j j S h  .a O.& y t F h G ;.j | h +.| ) X.*.>.| F | Z | 8.o.Z ..) | -.X.F X.J + 7.a j n P A Y A P C j C a J U G ",
"Q h Z +.H j h | ;.H *.;.h j Z * c h U | X.S | X.| Z d Z h X.Z h C | j Z Z +.| h | :.! *.j j k & c.S A | A F d A h h | J T E U Y ",
"j | g h ;.j X.f -.x.N.z.l.! j @ 9 X.h Z V G | E J j.Z Y Y H | g | X.| F Z ;.M.j Z -.h G X.Z  .@ n.U K K K A V K *./ Y F S X.j h ",
"Z J J -.Z H | +.;.0.q.k.h H 5.& 8 *.C Z h Q ;.P l.Y Z R ! R | O.A X.+.F Y | >.q.w.H  .>.( | X.4 G.F C S H i a O.R A | h | Z X.H ",
"Z Z *.+.Y -.O.z.B.) l.C Y h / & 0 J U A l.! S n.! l.O.{ | k.k.X.:.G X.J -.l.8.Y &.,.h Y | S Z > L.h 9 Z h a X.g H ;.X.Z Z Z Z Z ",
"F J Y H E l.w.| Y B U U Y | h 8 4 l.D.Y U ! K U l.! E X.k.Q 6.l.! :.G -.F *.7.-.| 7.9.! 6 j :.@ x.5.| Z Z Z Z >.| Z X.X.F g F X.",
"Z *.U 7.e.z.j.z.U U Z B p B T > 9 l.:.R 5.l.l.6.q.n.! l.l.! ! Y l.l.l.*.7.;.V ! G j h o.X.h p + +.m.h | Y k.j | >.X.| +.o.*.F Z ",
"6.E :.L A U Q Q Q Y E G N G M & u Q Y A U U B B Y ! G.l.l.n.H.G.n.*.l.z.Y | Q S j B h | Z X.y X *.N.j Z Z { Q | -.:.o.:.5.r.6.7.",
"Y G M B U M U b c U n E B U M : w Y K Q K B B Y G U Y ! Q :.! l.n.F.z.B.7.A Y G *.G F Z y C h O C N.R Y | Y Y l.Y >.Q H *.;.:.S ",
"G E Q ! L Y c G Y n K D B B M > l U B Y t P A B B Y Q T U l.l.-.R Y :.:.-.E J D S h j Z o.Z Z * Y +.V i h C C :.Y 2.Y Z | o.Z G ",
"Y Y B B b K Y b b K A g v y n O 1 T y b A B D N ! U B U Q Q ! l.k.! 2.Q :.:.Q ! D J F Z D g 8 . y ;.g g g h h G A j { A Z H U ! ",
"0 1 2 1 1 , : : & 1 & # @ @ O @ X o 1 > * & : : 1 2 : : : - 1 1 < l 1 > @ = & 5 : , 1 w < O . X * & * # @ O @ & > & : 1 1 1 2 > ",
"r X.S O.G / X.X.H ;.G j ;.R :./ -.o.| ` | | ) j / -.*.| +.Q 9 6 < c i a -.n.+.| j +.X.) / | / / Z %...~ k ;.h X. ./ ..| n.H 9 * ",
") d.a.S.a.8.8.r.A.e.e.9.9.Z.8.9.T.e.9.9.9.p.Y.Y.#.r.r.Y.<.9.i.& C E. .) ! p.T.t.s.4.T.a.&.0.%.<.4.<.1.a.a.i.%.1.9.9.$.r.%.@...& ",
"g !.p.7.,. .) X.} | *.o.+._ %.8. . .q.+.` _ 5.8.$./ ` >.+.$. .* f .. .+.H 9 :.,...%.:.5.+.Z O.| ` `  .` f +.O...| %...j |  .d & ",
"X.9.;.+.S | X.+.+.X.X...,.` o.;.F c.l.*.J <.%. .^ ` f <.+.-.! > $.^.7.>.o.X.y 9 H ,.b.v.R j *.| Z j _ ) d Z X.| O.+.^ | j | 5.4 ",
")  XR a.r.+.8.9.+.+.+.9. .a.;.N.J.Z.M.3.7.8.z.b.A.;.&.6.w.F.M.* :.H.l.U Z | ` F v %.V.D.A.M.m.9.w.4.@.+.+.%.1.F Z X.)  .| +.F @ ",
"O.Q.:.g r.a.a.9.+.%.%.;.e.c.%.+.n.B.| ,.;.7.l.X.z.o.+.7.Y ! H.u c.OXl.j.Z F o.%.-.S r.9.| >.o.%.8.8.5.8.w.F 0.B.;.+.&.] X.7 & O ",
"! K.j X.+.!.<.%.v.| R l.! O.6.z.Y ;.-.X.*.R { X.o.F S X.c.k.l.l +.{.>.F :. .*.%.V.e.t | t.+.8.J | | M.| | 8 I E.M.7.| = > < J v ",
"0 u -.8.@.Y.|.>.c.n.! 6.j./ ! :.;.| ;._ X.| 9.>.j Z O.H l.6.l.u v.|.B.| j ;.c.n.:.7.V.E r %.;.8.r.9.+.+.-.c B P > u x 8 5 S X.> ",
"h +.5.| / ,.E.n.M.l.:.:.8.:.,.:.X.Y F F Z | :.-.F O.:.Y Q B z.5 b.%X6.l.*.m.B.b.8.H / n.S S +.+. .*.X.X.0 m l.Y | ! U Y G | j * ",
"i M.+.Q :.p g.0.;.H.S.6.| J z.l.| :.| | *.o.-.X.X.:.:.! Q l.R l n.@Xl.z.A.l.B.7.l.:.+.*.n.O.n %.:.*.H : M l.n.n.U T j.A n S S > ",
"G z.| Z V | 5.9.8.n.n.7.o.n.n.! m. .,.+.| | Y X.G J | R ! M l.8 n.%XB.e.5.:.5.%.-.Y 6.H O.o.o.9 9 c 9 i *.V.S.Y j h g j +.8 h 9 ",
"Y R H | Z F Z o.O.Z O.l.l.9.8.a.l.E.-.R :.S G | *.l.R ! k.Q M.0 +.#XP.R X.Q H Y F Y J X.| ;.| Z V Z h ;.r.a.o.| -.Z j g Z Z i * ",
"S Z g -.h j *.| h q.X.Z *.h j +.r.:.n.l.n.l.D.l.! ! l.! ! ! n.0 e.&X:.l.z.z.6.7.*.O.-.o.Z Y J Z Z 9 Y q.E.{ p O.Y F j Z Z Z t X ",
"v ! Z Z g 9 C | G t h F | V S Q Y j S R n.l.n.J.D.6.l.2.n.! G.u 5._.Q -.! G F ! -.Z R H | A X.O.9 v :.'.A.J *.{ Q X.Z +.g S h @ ",
"* H S o.X...O.| F | h Z -.X.F h F R Q :.l.Q Q ! l.n.G.B.Q.G.H.2 a A.b.D.n.B.b.>.X.*.O.O.:.b.b.Z.0 u X.;.X.*.7.o.+.5.H F -.g F O ",
"> @ & + 8 5 @ X % = = & % > * * * + * * * < x 1 1 l , < l 2 1 2 8 = n 8 8 M u h i v P K c M 5 > @ : @ i + & * > & * % * = 9 O @ ",
"8 5 * & 8 0 8 8 = 0 0 5 5 5 @ . f *.o.%.+.+.%.o.h @ X.$.a.%.+.8.@.#.8.;.7.%.) ) %.8.<.0.%.| u > & 5 8 9 8 8 3 * 8 8 c l 0 c c 9 ",
"8.<.$.A.P.a.0.+.' r.q.z.z.+.X.. X..XE.].(._.).R.3 i XX-X.XT.T.!.(.u.XX*X$X&X.X~.y.h.!.r.Y.r.8.O 5 j &.%.+.5.n.e.&.0.M.I.n.7.7.5.",
"X.R  .| O.| ..;.q.$.| | -.| | % %._.Y U h G Y 7 & h a Y *.H k.| | ) ;.b.<.R.a.] _ | @.` ,.o.X.* 9 F | | | ,.n.m.%.$.r.k.Q -.-. .",
"o.5.| f | j ) ;.l.J d G Z j J & o.Y.C H h S h & t p  .o.X.-.j.X.9.q.z.z.8.<.,.` j Z h | Z | h = >  .) ^ ..>.l.R :.7.L.z.l.6.X.o.",
"+.X.| | j C Z | G d Z Z a Z F & z.z.h X.H h * y 9 i F 8.q.S :.:.;.X.n.8.@.@.5.>.| ) F S X.a j 5 8 F j f ;.^ +.| J 7.M.;.l.P S o.",
"U ! ;.;.F ..| +.:.,.Z Z Z | X.& R X.n y 8 * 8 9 y g > X.;.k.j.j.>.*.k.q.8.>.z.j.F h S Z Z a j 4 > | C F | | | ) j 7.z.:.j.:.T G ",
"6.k.| :.) +.z.q.+.+.:.| %.C X.* U S 8 6 a f y C j h j i T c.j.-.*.k.v.-.z.7.M.l.*./ -.*.Y V f * 8 X.X.X.H :.Y H o. .0.7.7.n.5.l.",
"-.-.-.X.-.0.,.+.e.;.H F S v.-.> E.T.X.%.+.j h X.+.Z F U 9 O.U.J -.l.*.! j.;.0.q.7.R :.:./ H H c = j Z F *.b.:.m.$.,.%.;.5.>. .<.",
">.z.%.*.e.<.*.;.q.5.m.;.:.| Q < ,.g.Z Z ;.-.X.$.r.w.%.-.U u N.;.7.<.$.n.q.z.n.;.l.l.l.G Y G G & 8  .X.Z X.:.! 7.8.8.o.%.%.<.+.,.",
"X.O.>.,...X.a.;.a.Y.N.+.k.-.X.*  .(.j | *.R ! w.F j X.8.! ! p 7.q.*.:.l.M.l.G.M.x.M.v.P | { Z & 9 8.6.| k.! >.w.,.0.;.:.:.<.;.| ",
"O.;.e.*.r.(.N.r.q.z.e.n.x.-.*.+ @.Y.7.<.Y Y H U.k.-.:.R M.6.E B X.H.v.n.A.).B.+XH.l.:.! A v Z = 8 ! ;.Y R R Y :.8.7.N.<.-.*.7.7.",
"A.M.%.N.q.*.%.+.Z +...8.*.:.+.& ) w.*.j | S -.! 5.z.:.;.-.L.! l.Q E I.G.j.M.Q J 6.S.I.n.Q Y H & 8 Q Y :.Z Z O.6.-.,.Z.M.n.S.Z.G.",
"Y ;.7.j Z o.| | 7.h H | -.| o.& >.7.j j g t *.X.h -.O.S A C :.Y k.B D n.z.Y C j E Q Q l.l.J *.> > R -.X.H A Q l.%.>.R J | *.Q -.",
"! *.h X.h X.h | X.| Y j H X.Z * l.k.K E l.u X.X.u Z | C Z o.:.l.:.Q b m X.Y O.X.j.D B U Q | S * > Y B S X.| D.:.F j G Q Y l.n.! ",
"R H >.h h H j Z j *.Y J G Y G o B :.J S v p Z 9 o.g | | H F G T +.-.M v q H Z Z S *.Y P u G G O @ n R H *.*.! Y K U g Y G ! ! l.",
"3 * 8 8 + * > > # = < 3 x 3 1 @ = * * & O < 0 & 3 3 @ < 1 < 3 < > u c > @ @ 8 8 & # < > < < > : X @ 1 z 8 > 8 : < 0 : 8 8 , 1 < "
};
