/* XPM */
static char *east_texture[] = {
"32 32 6 1",
"0 c #101423",
"1 c #F0DFCC",
"2 c #D7B79F",
"3 c #9F7961",
"4 c #2A2536",
"5 c #FFEEDD",
"00000000000000000000000000000000",
"01111111111111111111111111111110",
"01222222222222222222222222222210",
"01255555555555555555555555555210",
"01255555555555555555555555555210",
"01255553333333333333333355555210",
"01255533333333333333333335555210",
"01255333333333333333333333555210",
"01255333333333333333333333555210",
"01253333333333333333333333355210",
"01253334444444444444433333355210",
"01253344444444444444444333355210",
"01253344444111114444444333355210",
"01253344411222221444444333355210",
"01253344112222222144444333355210",
"01253344112222222144444333355210",
"01253344411222221444444333355210",
"01253344444111114444444333355210",
"01253344444444444444444333355210",
"01253334444444444444433333355210",
"01253333333333333333333333355210",
"01255333333333333333333333555210",
"01255333333333333333333333555210",
"01255533333333333333333335555210",
"01255553333333333333333355555210",
"01255555555555555555555555555210",
"01255555555555555555555555555210",
"01222222222222222222222222222210",
"01222222222222222222222222222210",
"01111111111111111111111111111110",
"00000000000000000000000000000000",
"00000000000000000000000000000000"
};
