/* XPM */
static char *north_texture[] = {
"32 32 5 1",
"0 c #1E1E2E",
"1 c #C5A880",
"2 c #F5E0DC",
"3 c #A07E63",
"4 c #302C3F",
"00000000000000000000000000000000",
"01111111111111111111111111111110",
"01122222222222222222222222222110",
"01222222222222222222222222222110",
"01222222233332223333222222222110",
"01222223333333333333332222222110",
"01222333333333333333333222222110",
"01223333333333333333333322222110",
"01223334444444444444333322222110",
"01223344444444444444433322222110",
"01223344444111224444433322222110",
"01223344441122223444433322222110",
"01223344411222222344433322222110",
"01223344112222222234433322222110",
"01223344112222222234433322222110",
"01223344411222222344433322222110",
"01223344441122223444433322222110",
"01223344444444444444433322222110",
"01223334444444444444333322222110",
"01223333333333333333333322222110",
"01223333333333333333333322222110",
"01222333333333333333333222222110",
"01222223333333333333322222222110",
"01222222333333333332222222222110",
"01222222233333333322222222222110",
"01222222223333332222222222222110",
"01222222222222222222222222222110",
"01222222222222222222222222222110",
"01222222222222222222222222222110",
"01122222222222222222222222222110",
"01111111111111111111111111111110",
"00000000000000000000000000000000"
};
