/* XPM */
static char *north_texture[] = {
"32 32 6 1",
"0 c #1F1624",
"1 c #432C4C",
"2 c #e9240aff",
"3 c #f01d0dff",
"4 c #eb0a7eff",
"5 c #1c42beff",
"00000000000000000000000000000000",
"01111111111111111111111111111110",
"01222222222222222222222222222110",
"01233333333333333333333333332110",
"01234444444444444444444444442110",
"01234444444444444444444444442110",
"01233333333333333333333333332110",
"01222333333333333333333333322110",
"01222233333333333333333333222110",
"01222223333333333333333332222110",
"01222222333333333333333322222110",
"01222222234444333344443222222110",
"01222222344444555444443222222110",
"01222223444445555544443222222110",
"01222233444555555554443322222110",
"01222334445555555555444332222110",
"01222344455555555555544432222110",
"01222233444555555554443322222110",
"01222223344445555544443322222110",
"01222222344444555444443222222110",
"01222222234444333344443222222110",
"01222222333333333333333222222110",
"01222223333333333333333332222110",
"01222233333333333333333333222110",
"01222333333333333333333333322110",
"01223333333333333333333333332110",
"01233333333333333333333333333110",
"01244444444444444444444444444110",
"01244444444444444444444444444110",
"01233333333333333333333333333110",
"01111111111111111111111111111110",
"00000000000000000000000000000000"
};
