/* XPM */
static char *_6fafde8f9a2465cdf0c6a0b5cc2cfe5laSpVUkH15Qv2oEe[] = {
/* columns rows colors chars-per-pixel */
"64 64 137 2 ",
"   c #040301",
".  c #090707",
"X  c #0C0807",
"o  c #070709",
"O  c #0A0708",
"+  c #0C0D0D",
"@  c #120F0C",
"#  c #0D110C",
"$  c #13130E",
"%  c #0E0D12",
"&  c #110E12",
"*  c #0F1113",
"=  c #131414",
"-  c #191616",
";  c #151A16",
":  c #1B1815",
">  c #151519",
",  c #191719",
"<  c #151A1A",
"1  c #1B1B1C",
"2  c #201917",
"3  c #211F1E",
"4  c #1C221D",
"5  c #22231E",
"6  c #1D1D21",
"7  c #211D21",
"8  c #1E2221",
"9  c #232323",
"0  c #2A2726",
"q  c #252A26",
"w  c #282827",
"e  c #272729",
"r  c #282728",
"t  c #272929",
"y  c #2C2C2C",
"u  c #302E2F",
"i  c #2D312E",
"p  c #30302F",
"a  c #2D2D31",
"s  c #302F30",
"d  c #2E3432",
"f  c #2D3A32",
"g  c #343434",
"h  c #383736",
"j  c #343A36",
"k  c #383837",
"l  c #363639",
"z  c #383738",
"x  c #373C39",
"c  c #3C3C3C",
"v  c #413E3E",
"b  c #37433B",
"n  c #3C413D",
"m  c #41403F",
"M  c #3E3E40",
"N  c #403F40",
"B  c #3E4441",
"V  c #434343",
"C  c #494646",
"Z  c #444A46",
"A  c #484847",
"S  c #474748",
"D  c #484748",
"F  c #464B49",
"G  c #4B4B4B",
"H  c #504F4F",
"J  c #4B524E",
"K  c #5D554F",
"L  c #4E4F50",
"P  c #504F50",
"I  c #4E5451",
"U  c #4F5D55",
"Y  c #535353",
"T  c #595756",
"R  c #545956",
"E  c #585857",
"W  c #595758",
"Q  c #575C59",
"!  c #5A5A5A",
"~  c #5B5B5B",
"^  c #5A5D5B",
"/  c #5B5B5C",
"(  c #5D5B5C",
")  c gray36",
"_  c #5F5F5F",
"`  c #625C56",
"'  c #625E5D",
"]  c #5B615D",
"[  c #61615D",
"{  c #69655E",
"}  c #615F60",
"|  c #5D6360",
" . c #5E6561",
".. c #5F6B63",
"X. c #606060",
"o. c #626262",
"O. c #626362",
"+. c #646364",
"@. c #646464",
"#. c #636A66",
"$. c #686867",
"%. c #676768",
"&. c #696768",
"*. c #666968",
"=. c #666B68",
"-. c #696869",
";. c #6B6B6B",
":. c #686E6A",
">. c #6C6C6C",
",. c #716964",
"<. c #736F6C",
"1. c #6A716D",
"2. c #74706D",
"3. c #706F70",
"4. c #6E7271",
"5. c #727272",
"6. c #737373",
"7. c #777777",
"8. c #757977",
"9. c #777778",
"0. c #777B79",
"q. c gray47",
"w. c #7B7B7B",
"e. c #7C7D7D",
"r. c gray50",
"t. c #807F7F",
"y. c #848484",
"u. c #8B8B8B",
"i. c #8E8E8E",
"p. c #918F90",
"a. c #8D9490",
"s. c #929292",
"d. c gray58",
"f. c #9B9B9B",
"g. c #9F9F9F",
"h. c gray65",
"j. c #A9A9A9",
/* pixels */
"h X.G G V V Z M V V A c V h G V c c V V V h B 9 q V g h h g , = V >.r.7.>.] 7.>.X.| $.@.>.-.! X.:.) ! Y ) ) ) ) D ! Y Y @.I g r ",
"Y X.H ! G ! ! X. .^ | 7.-.-.Y >.! ) D @.Y G I Y g V Y V V V m . 9.u.) X.) X.X.q.>.&.r.7.1.>.u.r.t.d.j.d.i.g.u.u.y.y.6.u.>.-.X.4 ",
"V c q y y r r r c c V x F Y F G D V V V V c n c V 1 g D c V c > 6.! V D V Y V c c c D h c c V c D D ! X.X.@.) ! Y ) V D V D V 5 ",
"Y n h g c f y V V y h h h V c V V V h c V V V c h M , z c h c > 7.X.V D ^ Y G I D Y V G G Y V V G Y V V Y 7.-.Y V Y V V G V Y r ",
"Y D g h V V c c g c c h c g V c c V Y D D D c J V D 9 9 r g V : q.Y Y H Z D F D Y c V Y D I V G c G ! G V D :.! D V D G G D V r ",
"D c c y g h V l y V g V V h V V n h Y ! G Y V V c D l i y 9 9 = u.V V D D X.X.) X.Y Y D ! ( Y X.Y G Y Y Y D @.! Y R T D J G D 9 ",
"D V g h y V m V h h N c n V c V D V h c D G G V F V A h q u y O q.) V G ) D J Y J -.Y Y ) Y X.G G Y V ! ! Y X.X.) X.) +.G G ! 9 ",
"Y c d c h x c V c V c c V c c V V D G V V Y ! Y J D G c 4 g ) 5 6.q.D V G J D V H Y X.Y ) Y ) ) Y ! ! Y Y R ) ) -.=.=.X.) V / 9 ",
"! V c c c h V c V c V x y c c V D V D Y G G Y X.Y ! G V < ) #.1 @.u.Y ) V c G F D Y Y @.! ! Y ! X.) Y -.) ! >.1.) ( ! ! D ! ^ e ",
"Y V c c h g c h V c c c D c V c V D Y G D ! @.X.) Y X.n , @.Y = Y i.) G D Y X.Y G Y W Y ( R ) ) ) ) } ) @.,.q.@.@.) ) ) -.X.! t ",
"Y ( j c c c h h V V c V c V c V V G Y Y Y X.V V D Y Y n 1 -.D 1 ] -.@.Y ) ) 1.X.=.@.=.X.{ L R W ! ) >.7.r.4.q.1.X.X.V D Y G Y g ",
"V ! c V V V V c c c g x V B D G ! Y Y J h D c c V D B 1 l G V 9 X.q.Y D V Y Y @.Y Y Y G @.6.8.>.@.) ! X.! ! @.( G [ L V V Y G 9 ",
"D -.x h c x c V V V G G D D c V c h V c N g h c h V g 1 X.r g 1 Y r.) V V D c V D G D G V V D ! ) Y V X.Y Y V D D c G ! D V v y ",
"c 7.V F D V G D G c V c D V V h n V y g c V V c t h < G Z c r + Y ! V G c c V V Z n I Y J G J V G ! V Y V J D Y G D c V c Y G 9 ",
"r G Y J c V V V Z c c Y h V c c x h V k c c c c m y y V 9 c g % y Y V G c V z n V V V D J V Z A Y D D V V G B V D V G G V V G = ",
"1 = < ; 6 = = 9 1 6 , < 6 > ; < = > : 1 % + + X 1 + * 9 * + % = 9 , < 1 9 1 1 9 1 ; > > , , 6 9 1 = 1 : > 6 1 1 < < , 9 9 9 , = ",
"V } V V G V Y V G V D n V V y > c @.6.7.7.r.q.q.) 6.>.@.@.X.X.R X.) Y Y ) X.) Y G ) ) Y G Y i 1 x >.X.@.Y X.6.X.( r.>.-.X.) >.X.",
"6.>.X.X.X.X.-.6.7.>.6.q.7.>.) = >.Y D D G G D Y G ! @.-.-.y.y.r.y.s.s.7.y.i.-.7.6.7.@.=.! ) Y = -.X.Y Y ! G @.r.-.@.-.7.r.6.6.r.",
"y 9 n r h c V c c D c V V V G = r.Y Y V G G G V c V c V V D c Y V P X.>.! Y D V D G V V D F c ; %.V c V c c c V V c V c V D c D ",
"g h c n h c V c V h V D V V c % $.V D V V c V V c D V D V G ! J X.J D X.! V D Z n V V v G D V , q.c c V G c D G D c V G A V ! G ",
"h c V D c B j V x g h c V y V % 6.G G c V ! D Y V ] ) Y ! ) ) V Y Y G Y -.[ J ] G Y ! Y Y Y Y 4 -.V V c V V Y D V c I V c J G D ",
"V h c V c c d V D c c V y c n % 1.! D R G D Y R G N c J V Y D D V ! V G G X.! V ) ) ! Y V D V 8 -.V c G V D V c V V D D Y D G J ",
"g c y y D h V h V D ! D V c g * X.>.n G n G Y D J T D D D Y ! V G Y Y D I ! 6.P D I D D ! G ) , X.V V c V V c V Y F Y G V Y V N ",
"h c c V h c c V V Y G c c c D = X.7.V Y c R Y V Y F G R Y Y D Y D J ! G ! D ] <.6.! ! X.) Y Y 9 >.D D V G v V Y G c F F Y G Y Y ",
"c h V V c V m D Y V D i c y c > ) 7.D D Y Y D ) Y X.G G D ! ! G ! Y G G ! X.+.! { =.Z Y J G V 9 >.V k D c V ( V Y X.G D D G D D ",
"c V V c g V I n c r x g g c i 1 ) y.7.D D G V G ) Y G G ) G ( ] Y T L ! D ) #.! A @.:.) z D G , -.X.D D G Y Y Y Y G Y R Y V F Y ",
"c V h G Y G V V h g y y y u x = X.r.) Y ] @.^ R ,.:.G ] ) Y Z Y X./ ! Y @.Y V J G Z V ! Y c V 1 @.>.c G I ! V Y @.Y Y X.) ) D J ",
"V g G k g y z c c c g g i g q = @.6.V G Z D G m V Y -.( ! -.q.#.@.E D X.Y G Y V V V c Y D G x = ! 7.c D Y H Y G ) ) Y ! ! 4.X.X.",
"V c i a p t g e q g t g d g r + Y ) V V V V V G D V D I Y G G ! @.7.X.7.X.D Y G ! V G G c V V 1 D q.! Y V Y Y K Y ! Y G ) Y ] D ",
"h c k c h h q g c y u i a g i = Y ! V V g V c n c V R V V Y ! Y D Y ! ! Y Y G V D V V G P V D 9 G @.V N c c V R V Y F V Y ! V F ",
"k g y t d a h t t y i y i 9 d % g X.h c V c c c G V V F G D E ) Y G Y Y ! Y Y R V D D F V v g @ h ! V n V c c Y c C D C A Y V G ",
"9 > < > > ; > - - , , > = , & & 9 9 9 9 9 9 9 9 5 0 9 9 9 1 9 9 3 9 1 1 1 9 , r 9 9 1 q 9 : + & t 1 1 9 9 6 7 8 9 1 1 1 1 1 0 9 ",
"> t 1 9 6 6 9 9 7 e 1 < q < 9 9 6 1 4 9 1 = > , > ; 9 1 9 4 + + V X.) ) ) &.] ! G X.Y Y T Y Y Y J @.@.Y G Y D ! ) Y X.Y X.Y g 9 ",
"9 c V c v V k V V c V x V c v x J c B D c V V B V i c V h V J o X.y.6.r.q.r.d.y.u.q.r.7.6.6.<.>.6.>.r.q.y.>.-.6.q.q.7.q.3.) Y 1 ",
"9 Y Y D G D V c c c V V V c V Y V V G V V V D D ! 9 x D c G Y * D >.] ! ) ) Y ] X.@.Y X.' Y ! ! @.@.! ) ) ! X.) J ) ) Y Q X.S 1 ",
"9 Y G c c c V D V V V V Y G V G c G V V V D ! G c 4 h D ) c V = ! r.! G Y R ) T X.Y -.) E G Y G Y Y R ) G Q ! Y ) ) Y Y F G ) r ",
"9 ! Y D Y D F Y V D Y G V Y D ! Y Y G Y D Y V D -.c g c 8 - V 6 ! q.) D V V Y ! ) q.=.6.0.>.>.6.=.7.&.X.X.@.>.Y G E ! ! Y -.) h ",
"9 G G c V Y ) R V Y D V Y Y G V G Y V G V V D c D ) Y D D F 3 9 >.a.-.Q D Y ) Y T  .p.X.Y ] ! -.>.6.-.>.@.q.-.X.! -.2.@.@.Y G w ",
"9 Y D Y Y Y Y D F c c V V c V G c V V c c V c V V c g V ! Y V   @.p.Y G ) ) ! >.>.X.F >.6.@.! G Y Y >.! ! Y X.r.6.@.Q c c V V 9 ",
"9 c G G Y G Y D G D c c V V V D G c V V V V Y D c h V g M c g , +.f.>.Y G ) -.-.G ! X.X.Y Y =.-.6.-.Y ) Y Y ! -.Y X.Y D c D c 1 ",
"9 z V c V c G Y D D V G D V V V c h V x c V V c V V j h h q y + X.d.! X.! >.@.=.-.Y F Y Y R I T ! ) ) G Y X.6.T D Y D G G c x 9 ",
"5 c c c V c D G D X.G V c c D V V V c c V V c c V V x c V i r * @.u.X.@.r.^ >.-.X.Q X.R ( ! Y I Y G ) Y (  .Y G Y J Z D G V V 9 ",
"6 c c h y c c V G G Y Y V G G V G V G V c c c c c n c V c y y = >.g.q.>.)  .) } U Y ] G ! Y Y Y G ) Y ) ! -.@.D c V c c I c V 9 ",
"0 h c h c c c c c g V G G ! G Y Y ! V V c c c c V V c x V V i : X.g.7.Y Y Y G Y D I G R Y ! D G ) ) ! [  .W G G Y Z V c D V V 1 ",
"1 y h c s z c h g v V c V g h V Y V Y V G D J V N c V c N g V 9 >.h.! ! @.` ) ) Y Y ) I V ) Y Y >.D ) ^ &.J A Y Y D V G D D c 1 ",
", h c y y 4 r x c d h V c g g c c h s V D V G R G S V V V g V 2 -.y.Y Y Y D D ) Y Y Y H G V Y Y ! Y ! -.-.Y Y ! Y G G H c V c 6 ",
"* r c j c V c c c c y g c n c c l c x G B c c c V D G Y Y Z D # V y.&.-.-.6.@.) Y Y ) Y Y ) ) r.>.3.@.! Y ) @.Y ^ X.G Y Y c G > ",
"o + , < < > + + @ 6 1 = = < > = = = 4 1 1 , 9 , $ 6 = 1 < ; , > i q n r y c k c c n V V h g y y y 9 - 1 < 9 9 9 1 , 4 6 4 r , , ",
"c D c c c V V x c V V V c c t > u h h c c c c c A c V c c V B V b D F c c h h h V c n V V h 1 @ V X.) @.) Y X.Y ! X.+.) ! ! -.) ",
"3.#.>.7.6.q.7.X.-.6.>.-.-.! Y % c ) G ! ! ! ! ) ) ) ) ! ) Y Y X.X.) @.>.-.-.! ! X.X.Q D G V V + @.u.y.f.y.y.s.s.s.s.h.d.i.u.s.i.",
"V c V c c V G G Y G V V V D c 6 c Y 9 y i y g h g c c e d c h c c c c c V Y J V h c V c V g h = Y >.Y Y ! -.>.X.@.>.7.! G Y G ! ",
"V V c c c c c D D g c z l g c < c Y r y y y y y y y h g d g c c c V V V V D c c g g 9 k y g y = G r.! Y @.@.) Y ! X.7.@.) ! ) Y ",
"V V V V h c c v g g j g y k c = V V y y y y y y y g g c g y i g c h D c c c c V c g a t c y a < ! -.Y Y ) Y ) Y Y ) >.X.Q V G ! ",
"c c G A h D D V V V h c n V V ; D c y k y j y u y h y c h g r B c g n V V c V j y i y s y y g , P 6.D G Y ! Y F G ) -.T ( ) D D ",
"V V c V V D G J G V D c D g c 6 G V r y d c k g j y c h b h V g h V m c V c D c x y x g d q g + Y 6.! G D Y Y G [ Y 7.] ..-. .R ",
"D V V B V Y D V Y V c c k V V 1 V J r g c k h g c h h c a c V c c B c c c V D V V h y y y d g ; ! :.D D Y @.G 6.&.4.$.` +.X.X.! ",
"D D D V I G V G D D Y D V c c 3 n T y y h V n y c x n c c c V c c c V V c V V c c V V y y s g + ) q.! D ) Y H @.1.-.X. .X.X.Y -.",
"c c V D V c ! Z Y ) Y V V V c 6 c ) k i c j c V d y h c c V c V c c B c V V V V V V c y g h y = X.u.X.Y Y Y ^ 7.@.6.) ! )  .X.Y ",
"c D Y Z Y >.Y Y D P J Y G V V > V G V V j z c V V c c h V c c V V V c V V Y V ! Y c c h y q g % ) 7.! G Y V V ! } @.q.X.! ! ) @.",
" .Y D ! D V V V c Z V D V D G - h D g g h h c x c c c h h V V V D c D V c V h h c B Y V h s q = Y >.Y ! G D R ! R X.7.6.,.4.>.6.",
"x V G l c V V V D h c V c c V 9 h V g y 0 t h g r c h s y y g h c v x c x y r y g g j c c c g + G >.Y G Y V Y @.+.( R Y D Y Y Y ",
"c V y m g V g c V c c z B c c > M g i g g u y h 9 y g i g p c x c V g y u g j y h y a i s g g , G -.V D D ! @.) G V G Y D ) X.) ",
"V h Z g g c u g y c h c c x l % 9 x d r r y q 9 h t d g j a t k c g d h y r t g 9 g y 9 r r r + a Y Y G Y ! / D c D n Y D Y Y Y ",
"< 1 6 6 - 1 < 1 , 1 1 1 6 1 > * , , , > = > , , , < % , > , , = , < - 1 , > , 1 > , ; , , = > + w 9 9 t y 7 i 9 9 9 1 r y 9 9 6 "
};
