/* XPM */
static char *south_texture[] = {
"32 32 6 1",
"0 c #0F172A",
"1 c #F2CDCD",
"2 c #E09DA0",
"3 c #B0727C",
"4 c #231B2E",
"5 c #F8E6E0",
"00000000000000000000000000000000",
"01111111111111111111111111111110",
"01222222222222222222222222222210",
"01255555555555555555555555552210",
"01255555555555555555555555552210",
"01255555333355555533355555552210",
"01255553333335553333335555552210",
"01255533333333333333333555552210",
"01255333333333333333333355552210",
"01255333444444444444333355552210",
"01253344444444444444443335552210",
"01253344444111114444443335552210",
"01253344411222221444443335552210",
"01253344112222222144443335552210",
"01253344112222222144443335552210",
"01253344411222221444443335552210",
"01253344444111114444443335552210",
"01253344444444444444443335552210",
"01255334444444444444333355552210",
"01255333333333333333333355552210",
"01255533333333333333333555552210",
"01255553333335553333335555552210",
"01255555333355555533355555552210",
"01255555555555555555555555552210",
"01255555555555555555555555552210",
"01222222222222222222222222222210",
"01222222222222222222222222222210",
"01222222222222222222222222222210",
"01222222222222222222222222222210",
"01111111111111111111111111111110",
"00000000000000000000000000000000",
"00000000000000000000000000000000"
};
