/* XPM */
static char *fafabbec727d4276c1bafc9216438de1WIARTI3vmNL5JSx8[] = {
/* columns rows colors chars-per-pixel */
"64 64 158 2 ",
"   c #050506",
".  c #080707",
"X  c #070A06",
"o  c #050508",
"O  c #080708",
"+  c #060B08",
"@  c #0C0B0C",
"#  c #110E0D",
"$  c #0B110E",
"%  c #11100F",
"&  c #0E0E11",
"*  c #110E10",
"=  c #0F1010",
"-  c #121314",
";  c #191617",
":  c #131916",
">  c #191A16",
",  c #161619",
"<  c #19171A",
"1  c #161C1B",
"2  c #1C1C1D",
"3  c #201B16",
"4  c #211E1D",
"5  c #1E231E",
"6  c #22211F",
"7  c #1E1E21",
"8  c #211F20",
"9  c #1E2322",
"0  c #1E2628",
"q  c #242424",
"w  c #2A2625",
"e  c #262926",
"r  c #282827",
"t  c #262629",
"y  c #292729",
"u  c #272A28",
"i  c #2B2B2B",
"p  c #312C27",
"a  c #302F2F",
"s  c #2D312D",
"d  c #31312E",
"f  c #2E2D31",
"g  c #2F3231",
"h  c #333333",
"j  c #393634",
"k  c #343A35",
"l  c #393937",
"z  c #353539",
"x  c #383738",
"c  c #373B38",
"v  c #3C3C3C",
"b  c #3D403E",
"n  c #43413E",
"m  c #48403A",
"M  c #413F41",
"N  c #3E4340",
"B  c #444444",
"V  c #494645",
"C  c #444946",
"Z  c #4E4A45",
"A  c #474748",
"S  c #494748",
"D  c #464C49",
"F  c #4C4C4C",
"G  c #504B47",
"H  c #504F4F",
"J  c #4B524E",
"K  c #54504C",
"L  c #5A514B",
"P  c #504F50",
"I  c #4E5451",
"U  c #4C5951",
"Y  c #545454",
"T  c #595656",
"R  c #535956",
"E  c #575758",
"W  c #585758",
"Q  c #565C59",
"!  c #5B5B5B",
"~  c #635A55",
"^  c #605E5F",
"/  c #57645C",
"(  c #5B615E",
")  c #60605F",
"_  c #6B635D",
"`  c #5F5F60",
"'  c #605F60",
"]  c #5E6461",
"[  c #646464",
"{  c #696766",
"}  c #636966",
"|  c #656A67",
" . c #696966",
".. c #676768",
"X. c #686768",
"o. c #696768",
"O. c #676B69",
"+. c #676D69",
"@. c #696969",
"#. c #6B6B6B",
"$. c #6D6D6D",
"%. c #6E6F6E",
"&. c #706763",
"*. c #726B65",
"=. c #776D68",
"-. c #716F6D",
";. c #66736B",
":. c #6F706F",
">. c #6C726E",
",. c #70706F",
"<. c #6F6F70",
"1. c #706F70",
"2. c #6D7370",
"3. c #6E7A72",
"4. c #717070",
"5. c #747373",
"6. c #707772",
"7. c #747474",
"8. c #767676",
"9. c #797776",
"0. c #737975",
"q. c #747977",
"w. c #777778",
"e. c #787778",
"r. c #767B78",
"t. c #787878",
"y. c gray48",
"u. c #7C7B7C",
"i. c #7E7D7E",
"p. c #817974",
"a. c #827F7E",
"s. c #79807C",
"d. c #8B837E",
"f. c #807F80",
"g. c #7E8380",
"h. c #818181",
"j. c #838383",
"k. c #858585",
"l. c #888787",
"z. c #858987",
"x. c #888788",
"c. c #8A8A8A",
"v. c #8B8B8B",
"b. c #8D8D8D",
"n. c #8D918E",
"m. c #90918F",
"M. c #8E9091",
"N. c #909090",
"B. c #939393",
"V. c #989797",
"C. c #979897",
"Z. c #969798",
"A. c #9B9B9B",
"S. c #9E9E9E",
"D. c #A09FA0",
"F. c #A1A2A2",
"G. c #A4A3A3",
"H. c #AFAEAF",
/* pixels */
"q ! @...! [ ! ! ! [ [ [ @.@.F - 2 Y ..! ! E B v Y E ! [ E ! E , 2 S ! ! [ ..! F S S ! @.%...B - q E Y A ! [ E ! ! ..! ! 4.@.S 2 ",
"@.8.N.S.c.h.u.h.h.q.+.8.8.%...2 ..%...u...@.u.4.i.N.k.c.h.h...q E u.F.S.N.b.a.b.i...4.! ! ! .., ..@.Q M x S F S B Y v ! A Y [ h ",
"%.b.S.4.! Y S B Y E E S Y F S S u.! F ! ! A E S Y E ! 8...N.8.x ! A.a. .R ..R F S A Y v C B [ ; y.S S Y A B A F v S B B B A B x ",
"....2.8.! R S ! ! S A S S ( J k %.Y v Y ! ! Y E K I S ! I ! k.h } F.[ ! @...! [ Y ! F Y Y E ! - E ! B v S ..Y S B E B B Y M E B ",
"! ,.^ u.@.} E ! S F S F Y b R v @.! Y ! ! ! Q ! ! Q A H I A 5.k E N.8.] T ! [ Y ! ! S E T } Y q Y @.S F B v U F S A F F Y ! E h ",
"[ ! 4.! 4.! :.F B [ S ! Y B Y B ..4.[ ! W Y Y [ I [ ! <.=.3.[ B 4.h...! S @.@.X...+.@._ %.6.! v ..4.[ Y F B ! S Y Q ! ! ( ( S r ",
"Y E ! E F } | } E E [ R ' ..Q q ! Y ! ! E ! Y Q %.E | W F ! F q [ [ %.%.u.[ | 4.} ....[ Y F F 2 E B F ! E ! ! C Y ! ~ F v x B q ",
"- q i 8 q y q i 2 y q q i k q O & q k f y y q ; ; w s i q y q . - y h q u i 7 7 q q q i q q 2 X @ 8 e q q 2 - ; 2 0 u q q 2 2 + ",
"4.<.%.:.X.! E % 8 E ..@.! ..' :.....:.@.%.! Y ; - A F ! %.4.%.k.@.......@.[ K - ; ) 4.8.8.[ E @.[ ....%.[ F F @ 2 E 8.i...X.! @.",
"i.4.f.i.b.u.! 7 ! [ ..8.i.i.N.b.h.A.c.N.k.h.[ h v 4.A.A.k.%.l.2.6.X...I Y [ e.u F 8.A.b.N.k.k.c.c.k.c...@.! Y , Y @.i.:.8.8.4.8.",
"A E I S ! @...q @.8.u.c.c.k.} Y Q Y ! ..@.b.@.h Q S.i.Q B ! R F ! v v v F S ( F @.N...] E B ! E E [ 4.i.[ Q E i @.N.S A A A B K ",
"F E Y [ ! i.F q [ u.%.i.! I E E W ! F ! A ! _ i i.k.J Y S E [ [ E ! S S F I Y A i.k.N F F ! ! Y F S S ( u.! ( w [ i.F B v Y E A ",
"E S F Y ! S S y ! i.b./ ! F F F Y S ..E Q S [ i h.f.J E [ F E ! Y ! ! F S S F n ..l.! S Y S Y ! E E D | ! i.~ q [ u.E E S v v ! ",
"A F F @.E v A 9 8.N.E Y Q [ ! S I E v B Y ( [ i ! 8.( +.2.:.F S F Y R _ J H ( i 4.:.8.] Q E E Y F Y S ! F ] %.q 8.N.A S A E F A ",
"! ( @.Y S F B < ..0.8.%.Y Q ! X.Q @.+...%.^ B u Y B [ ! F 4.] ! S E [ @.Y T x 7 E I ..8.%.%.! ! @.! F Y Y -.L 9 ! %.u.%.[ ! @.S ",
"h q q e q 4 - O O q N A F B B m h k k g q 7 , . - 7 i s i 1 < i q q 2 q y 8 - O O 2 e q q q h F B h h f h h 1 . @ , h x v v B B ",
"; [ E ! ..[ ! ! ..6.8.i.%.u.[ @ q ! ..1.1.@.8.c.%.u.r.y.8.5.E - 2 [ ..! +.%.[ E [ 4.a.i.u.i.E @ 2 E ! [ ..<...[ ..u.u.%.%.u...& ",
"..i.c.c.k.k.i.c.k.4.%.@.4.8.! i ..i.N.u.6.! ! ! Y E Y S F ..! 5 [ @.k.h.N.S.c.k.k.@.E E Y ! X.q @.h.N.h.8.@.4.k.[ ! E ! ! ! ..f ",
"@.u.C.[ Y ! ] F Y ! S Y E Y ! y 8.A.i.Y S ! E A F B A S A A Y B @.i.c.b.h.! F A v Y v F S J ! i @.N.! E F B F Y J F Y Y ! ! ! x ",
"@.n.! F Y E E Q ! S E E ! Y B q [ h...F Y x F F x Y B S B B E h 4.S.N.%.! E Y Y A F F A J F ! q e.c.S E ! A E [ F S B F Y E ..y ",
"%.4.! [ ! F S ! Y A A A E v A q %.i.8.Y Y @.Y ! B ..! ! ! ! %.w +.%.! e.%.! ! [ W Q @.! ( ! 4.y | h.! B F F ..E F S ] Y Y Q A i ",
"[ 8.S [ E S B E [ F Y ! v A v 7 2.A E +.@.[ ! ! E A B F B F ! < } [ F E %.5.Q S [ ! E W F F R y 2.k.F ! A E S A F Y ! ! E v x i ",
"s %.! Y 8.E ..! @.:.8.@.Y D a 7 F c v B v E ..! Q [ ! E [ @.R @ ! S F S Y ! 8.! ! | Y E [ ! S q ! ! ' ! ! Y S ! 4.[ E A x A h ; ",
"O : s x y d i k y k v u 8 y y . = < q e q q i y q q q h k i @ . O 6 h 2 i q y h k q x x i i y O - y k e h w y h h 2 y 2 6 5 7 o ",
"..8.u.i.4.h.E & q ! 5.;.X.[ ! @...+.6.! } ..A & q [ 0.@.| [ ..4...! ^ [ 4...Y & q [ 2.4.8.4.E u.8.%.[ } ! Q Y $ 2 @.4.@...E Y [ ",
"8...Y Y x F ..y @.[ 8.:.i.b.c.b.k.i.x.%.i.u.S q ! 4.c.b.b.u.h.h.%.8.4.4.@.4...t ! c.H.N.:.e.h.r.u.k.h.i.b.n.%.q E 4.c.k.k.c.k.i.",
"B F B I E F I F #.u.@.4.h.4.! ! ! ! B F R X.%.q 4.c.@.( ! E A Y ! J B S S A [ i %.N.E ! ~ A F S ! Y S E E ! ..B [ i.k.F.k.[ S A ",
"F B S v A A E x @.c.n.k.! E F F ! ! S Y J S ! q h.u.E Y D E ! Y Y F F E C Y ..i ..@.;...Q @.F A Y F F E E S ! j [ 8...h.~ @.Y S ",
"! F S F A v S i | b.e.( I ! S B Y S Y E F S ! h 4.e.H E T R F E ( [ Y ! 8.[ I i :.} ..i.F ! Q F S S A F A S Y i F 8.4.u. .] ..E ",
"F ! A F A S S i 8.V.Q J Y E J ! S Y F Y x J E t ! g.%.Q S ! @.E R E %.[ Y F Z q @.Y E ! b.[ [ [ A B B A S Q ! p F y.6.u.*.%.S ! ",
"%.[ [ E ! ! E 2 ! ! 4.[ :.E %...! 4.Y E / ! A 2 ! Y [ X.@.[ -.p.<.! _ F A A n q F D Y E Y ! Y ( 8.Y ! Y ! Y v q S ! X.[ <.p.{ 4.",
"A x l p h y ; o & 9 h k h x d B y h y h f t , . - y 4 < i e d h i i 9 y 2 q 7 . - t h y i 6 < q y v g y q q , . # q l w q q z b ",
"- F 8.i.%.} ..! E ] ! ( +.@.E @ q E Y ! +...Y F E S ! ! ! ! F & q ! [ ..[ 8.4.@.! [ :.] [ 2.E O - B %.( @.8.! [ ! [ 4.%.@.[ F * ",
"S i.8.8.h.i.u.h.N.c.M.i.y.O.Y 6 @.@.k.h.u.c.k.A.f.N.Z.h.%...Y q @.8.h.c.h.8.i.6.u.8.h.h.@...D 2 z ! k.N.S.k.@.i.i.u.8.u.c.u.A i ",
"@.h.E Y E F F J H Q *.8.4.! ! i %.c.A.4.i.8.c.u.s.E { i...} W q 2.8.! Y E J v I A F B [ 4.Y E f Y u.u.c...F S S v Y Y ! E i...y ",
"..8.S S B S F ! ! E ~ %.k.[ E w i.u.Y F Y E %.! Y E F ! c.*.Y q @.8.F F F S F S Y F ! Y ..S G q ..%.u.u.F ! Y S Y ! ! E Y S i.x ",
"4.k.F Y ! Y ! ! F E ! :.[ %.Y i c.! E Y F ! F Y [ F Q Y Q %.8.y ..! Y B A B S Y J ! ! Y %.S B 4 %.8.%.u.! [ ! F F I W ! E E ! B ",
"%.4.! F S R P F B ! Y F } %.Y q i.u.v ! Y Y Y F E J ! ..Y I u.v 4.8.F E A S Y A F A ..! T S x : 4.4.%.%...| Q E F A E F E F F b ",
"! F ! 2.@.X.8.O.[ F ! ..| E F y E %...! [ [ [ } @.! ! @.h.u.! 2 Y u.Y F I H F ! E E ! +.E F B @ F F ! I Y J ..:.[ [ ! S S C E q ",
"& 2 k a x s h B D S g h i f 6 . % 2 k h i q h y t 2 x i z A 2 O @ h S v h b F l h y e y 7 ; - o @ t s e q 4 5 y i d h i y v 2 @ ",
"4.] 8.%.%.@.E - - C 8.8.8.! @.@.[ E A B ! ..Y ; - v ..i.u.%.:.4.i.@.[ u.%.%.F & q ! ! ! ! | [ 4.@...-.;...! E - 2 E @.%.@.! ! @.",
"b.l.b.b.A.b.4.i A g.%.! ! E 8.i.8.h.h.k.i.%.E y v 8.h.[ ! ] E @.( [ ..i.h.c.@.t ! 4.i.g.k.N.c.i.u.8.q.%.5.i.) 1 ! ..4.4.k.k.N.N.",
"' Q W F F ! h.h ..! S A v Y ! A [ Y [ 8.2...E h E m.E E E A F E ! Y ! Y E [ 8.h ! u.b.i.A.+.! F S ! A Y B Y u.i ! 8.8.h.G.u.%.8.",
"T ! T Q ! Y @.q [ I ! F ! ! E [ Y %.J J :.E v q ! c.X.R E Y Q F Y Y Y F E E ! e ! i.i.N.[ ] Y F ! ! Y E D F Y v 8.h.N.i.@.! ! S ",
"D P Y Y S S 2.i u.F Y F ! S Y Q :.R [ Y ..Y ! e E ..4.4.T Q ! ! ( [ S E @.! %.h E c.A.k.D ! Y E @.S F C E S F A 4.N.*.! ! ..Y F ",
"B [ E F E F Y e h.R S ! S F F E E Y E +.4.E A k @.[ E ! 4.-.:.} ! Q ! ! ! A @.x ! i.i.u.! J Q E E Y F Y E S ! b h.A.R X.P S S F ",
"E _ -.E ..! B 7 E @.....@.%.@.! ! ..:.X.U F B : Y B A I / ( @.4.! ' ! [ %.8.K q F [ %.%.%.@.W e.[ ! E S F ! %.2 [ h.@.X.0.! ..! ",
"x s z i i y ,   O y h s y i g i h e h i y y 7 . + 7 2 w q q q h s s h q 5 h 2 . @ q h h h B k c B B h h q k < X & q g i h N y h ",
"2 E ! ..u.i.4...[ @.k.8.4.h.! - , E [ ! Y [ ` ! [ ! ..4.2.5.) @ q ! 4.@.%.@.[ [ 4.8.i.4.%.! S @ - E ..@.2.%.@.W ..%.i.@...%.! - ",
"[ 8.c.n.8.+...E [ ..E E ! ] [ e ! h.z.i.8.u.%.8.u.@.4.] ..%.} q ....Y ! J R ( ! [ [ %.%.c.h.! 2 ! h.S.N.8.%.4.8.i.i.k.h.4.! S s ",
"..N.8.S Y F F A Q E ! Y Y F +.v [ c.R S A A S E A ! ! A E Y ..x i.! S F S ! J P v D ! Y @.%.%.x 8.d.Y E S ! [ J Y ! E I ! [ E x ",
"E D.@.Y ! Y ! R ! E S Y Y F ..i %.k.F Y B A E F E S J ! F J ! i 8.%.E Q Y ! E Y F Y A X.! &.] g 4.h.! W +.+...E ! ..%.! +.! E s ",
"! d.q...F S F Y v S Y F S F ! q %.8.E ! Y W Y Y W ! ! ! E Y @.q 8.:.! ! R A S E Y ! Y S 8...! k 4.4.F R +.P ! ! ! W ......S B r ",
"! F [ %...0.! [ E [ E ! ( @.X.h 4.i.....! ( Y ! R E [ 8.....v s ! 2.E ! I F F E S Y ] @.` F ] a 4.u.F ! F E E F S Q ! E [ *.D q ",
"F B A S C ..6.6.[ ] %.! %.Y S q @.! } [ +.%.@.%.( ! Y F F S B 7 Y F @.( ....} ^ [ Y ! E Y B n 0 ..! e.@.[ ..! ! @.! 9.@.u.y.Y s ",
"@ < t q , q i w i q 2 > q g q O @ t h i f s e t i e i q 3 e e . @ q q q y q x h u r q i i h q O @ 5 i i h s t n h k h x h h q . ",
"[ ....[ ..S B - q ! c.i.u.%.4.h.u.i.i.@.@.8.E @ q [ %.1.y...( [ Y S ! +.) Y B & 2 ..g.i.8.@.8.h.8.u.4.%.@.[ E @ 8 } k.h.4...Y u.",
"h.h.u.@.@.! E 4 [ 8.^ J S E S I F E E S E @.@.h Y [ m.u.4.h.h.N.k.h.2...:.Q S q ! w.A.8.8.%.E [ ..[ ! F A D E v ! y.! [ 4.i.k.8.",
"F ..i.2.%.i.E q 0.F D Y E A S C ! v A Y B A ! i [ N.! F F J Y [ [ @.8.8.! @.Y v @.b.%.S B v S Y F F F S S S B v h.8.! E S C ! ! ",
"! ! S :.h.k.%.q 4.E ! ! A I F S S S F D Y ! ! - %.b.J A A E F ! E F E ..r.2.F q } e.e.E F E S A Y R Y ! F A Y x k.@.Y ( T ! ! ! ",
"E ..%.F Q 2.u.h a.! I ! ! J Y ! I S F Y ! Y F t ! N.! Y A A F Y ! [ ! Q @.8.P 5 ..k.( E F B S Y S ! E E ! S Y F %.4.F E S ! Y E ",
"Y ! S ! I ! ! x %.p.R Y ! T ! F ..S ! %.! B x w 8.N.! S Y Y ! R ! ! T S S ! i.h y.h.#.....} Y E ! ! S F Y W ..h ! h.@.' F ! ..Y ",
"%.[ 4...! w.F y B ..=.@.@.@.[ ! ..Q ( S A F h ; Y ! i.%.Q ! Y ! ! E ! ( E ..E q F [ [ Y F | Y Y Y S @.[ ..! Y q B F ! +.} @.8.%.",
"B i h x s l y - - y h i h h h 2 t d g i q q q @ - 2 h h B B A b V F Z F v i r @ ; q x y q q i e q i q h s i q @ - y q h x k x v "
};
