/* XPM */
static char *west_texture[] = {
"32 32 6 1",
"0 c #1B1F2F",
"1 c #F2E9E4",
"2 c #D4B499",
"3 c #9C7A63",
"4 c #352C3C",
"5 c #F8DCC4",
"00000000000000000000000000000000",
"01111111111111111111111111111110",
"01222222222222222222222222222210",
"01255555555555555555555555555210",
"01255555555555555555555555555210",
"01255333355555555555333355555210",
"01253333335555555533333335555210",
"01253333333355553333333335555210",
"01253333333335533333333335555210",
"01253333333333333333333335555210",
"01253334444444444444433335555210",
"01253344444444444444444335555210",
"01253344444111114444444335555210",
"01253344411222221444444335555210",
"01253344112222222144444335555210",
"01253344112222222144444335555210",
"01253344411222221444444335555210",
"01253344444111114444444335555210",
"01253344444444444444444335555210",
"01253334444444444444433335555210",
"01253333333333333333333335555210",
"01253333333335533333333335555210",
"01253333333355553333333335555210",
"01253333335555555533333335555210",
"01255333355555555555333355555210",
"01255555555555555555555555555210",
"01255555555555555555555555555210",
"01222222222222222222222222222210",
"01222222222222222222222222222210",
"01111111111111111111111111111110",
"00000000000000000000000000000000",
"00000000000000000000000000000000"
};
