/* XPM */
static char *west_texture[] = {
"32 32 5 1",
"0 c #20111F",
"1 c #4C1E3C",
"2 c #A53D7E",
"3 c #F075B7",
"4 c #FFD1EC",
"00000000000000000000000000000000",
"01111111111111111111111111111110",
"01222222222222222222222222222210",
"01233333333333333333333333333210",
"01233444444444444444444444433210",
"01233444444444444444444444433210",
"01233333333333333333333333333210",
"01223333333333333333333333332210",
"01222233333333333333333333222210",
"01222223333333333333333332222210",
"01222222333333333333333322222210",
"01222222233444433344443322222210",
"01222222334444444444443322222210",
"01222223344444444444444332222210",
"01222233444444444444444433222210",
"01222344444444444444444444322210",
"01222344444444444444444444322210",
"01222233444444444444444433222210",
"01222223344444444444444332222210",
"01222222334444444444443322222210",
"01222222233444433344443322222210",
"01222222333333333333333322222210",
"01222223333333333333333332222210",
"01222233333333333333333333222210",
"01223333333333333333333333332210",
"01233333333333333333333333333210",
"01234444444444444444444444443210",
"01234444444444444444444444443210",
"01233333333333333333333333333210",
"01222222222222222222222222222210",
"01111111111111111111111111111110",
"00000000000000000000000000000000"
};
