/* XPM */
static char *efada7817dec4bb4f95af35d9d508dcfGdYyvGNWTnhIADxk[] = {
/* columns rows colors chars-per-pixel */
"64 64 237 2 ",
"   c #040201",
".  c #0B0602",
"X  c #050907",
"o  c #0E0904",
"O  c #0C0B0B",
"+  c #130C04",
"@  c #180C04",
"#  c #130E0A",
"$  c #161003",
"%  c #1C1306",
"&  c #1C140C",
"*  c #0D1011",
"=  c #161515",
"-  c #1C1A16",
";  c #1C1C1C",
":  c #221405",
">  c #22150A",
",  c #26180B",
"<  c #25190C",
"1  c #2B1C0D",
"2  c #311D0E",
"3  c #241B13",
"4  c #2A1E13",
"5  c #231D1B",
"6  c #2A1F19",
"7  c #1D241C",
"8  c #2D2115",
"9  c #25211C",
"0  c #2B231B",
"q  c #312215",
"w  c #3B2915",
"e  c #33251B",
"r  c #35291C",
"t  c #3B2B1D",
"y  c #1E1E20",
"u  c #221F21",
"i  c #1E2423",
"p  c #242424",
"a  c #2A2523",
"s  c #282827",
"d  c #2C2924",
"f  c #24262A",
"g  c #262A2A",
"h  c #2B2B2C",
"j  c #352923",
"k  c #342C24",
"l  c #3B2D22",
"z  c #332D29",
"x  c #2C322C",
"c  c #3D3025",
"v  c #35322B",
"b  c #3B332B",
"n  c #2C2E31",
"m  c #2E3234",
"M  c #333536",
"N  c #3B3632",
"B  c #3C3936",
"V  c #36393B",
"C  c #3C3C3C",
"Z  c #40220D",
"A  c #452E19",
"S  c #473318",
"D  c #44321D",
"F  c #4C341D",
"G  c #54361D",
"H  c #412F23",
"J  c #433224",
"K  c #4B3524",
"L  c #45362B",
"P  c #4A362A",
"I  c #48382A",
"U  c #4D3A2D",
"Y  c #523725",
"T  c #543A25",
"R  c #5A3B23",
"E  c #533C2C",
"W  c #5A3D2C",
"Q  c #443A34",
"!  c #463C37",
"~  c #4C3C33",
"^  c #443E3A",
"/  c #533E31",
"(  c #643E27",
")  c #5B441D",
"_  c #5E4425",
"`  c #54412E",
"'  c #5C412C",
"]  c #4E4036",
"[  c #45413E",
"{  c #4C423C",
"}  c #554234",
"|  c #5B4434",
" . c #5F4936",
".. c #53453B",
"X. c #5A4639",
"o. c #56493E",
"O. c #5D4A3B",
"+. c #64422D",
"@. c #69462B",
"#. c #72492B",
"$. c #78532B",
"%. c #634634",
"&. c #6B4632",
"*. c #634935",
"=. c #6B4A35",
"-. c #624C3C",
";. c #6C4D3B",
":. c #734D39",
">. c #66503E",
",. c #6C513E",
"<. c #755435",
"1. c #74523D",
"2. c #7C543C",
"3. c #3B3D41",
"4. c #3E4143",
"5. c #3E4846",
"6. c #434444",
"7. c #4B4643",
"8. c #424845",
"9. c #4D4945",
"0. c #444649",
"q. c #46494B",
"w. c #4C4C4C",
"e. c #504741",
"r. c #544B44",
"t. c #5B4D42",
"y. c #534E4A",
"u. c #584F48",
"i. c #4B514D",
"p. c #535046",
"a. c #5D5146",
"s. c #55514D",
"d. c #5B534C",
"f. c #464C51",
"g. c #4D4E51",
"h. c #504F51",
"j. c #4E5354",
"k. c #545454",
"l. c #5A5652",
"z. c #585954",
"x. c #5D5955",
"c. c #545658",
"v. c #56595B",
"b. c #5C5C5B",
"n. c #634F41",
"m. c #6B4F40",
"M. c #655243",
"N. c #6B5444",
"B. c #6F5846",
"V. c #64554A",
"C. c #6B5749",
"Z. c #65584D",
"A. c #6B594B",
"S. c #735544",
"D. c #7A5542",
"F. c #735946",
"G. c #7C5A45",
"H. c #735C4B",
"J. c #7A5D4B",
"K. c #635A54",
"L. c #665B55",
"P. c #6C5D53",
"I. c #625E5A",
"U. c #735F52",
"Y. c #5A645C",
"T. c #76604F",
"R. c #7B614E",
"E. c #6D6055",
"W. c #64615D",
"Q. c #6C625C",
"!. c #746153",
"~. c #7C6453",
"^. c #73655B",
"/. c #7A6759",
"(. c #7D695C",
"). c #5B5E61",
"_. c #5D6263",
"`. c #5E646A",
"'. c #636363",
"]. c #6B6562",
"[. c #6E6A65",
"{. c #636769",
"}. c #646A6C",
"|. c #6D6C6B",
" X c #726B64",
".X c #746B66",
"XX c #7D6D63",
"oX c #726D6B",
"OX c #7D7067",
"+X c #7C736C",
"@X c #686E71",
"#X c #6D7173",
"$X c #727374",
"%X c #7A7776",
"&X c #7C7B7B",
"*X c #855738",
"=X c #88603F",
"-X c #865B45",
";X c #815E4A",
":X c #905E46",
">X c #83614D",
",X c #8B624C",
"<X c #876948",
"1X c #97674A",
"2X c #836653",
"3X c #876655",
"4X c #846856",
"5X c #8A6955",
"6X c #836B5C",
"7X c #8A6D5B",
"8X c #936B57",
"9X c #977358",
"0X c #A47157",
"qX c #856F61",
"wX c #896F61",
"eX c #916F60",
"rX c #847164",
"tX c #8B7263",
"yX c #83756B",
"uX c #8B776C",
"iX c #927565",
"pX c #957666",
"aX c #957A6C",
"sX c #9B7C6C",
"dX c #847C77",
"fX c #8C7C74",
"gX c #997F72",
"hX c #A47D69",
"jX c #78807C",
"kX c #88817D",
"lX c #998276",
"zX c #A6816D",
"xX c #A68676",
"cX c #888685",
"vX c #978882",
"bX c #999897",
"nX c #A89087",
/* pixels */
"9 N.P.A. .K.a.N.-.;.1.M.&.:.T # : ` =.x.-.s.B w } | *.d.-.=.h.& % P %.M.*.@.V.` U ~ v.n.P.-.J # 9 O.} ..+.-.O.M.-.M.O.M.^.Q.~ & ",
"V.6XhXnXfXrXG.5X7XG.<.G.G.1.B.- K.J.H.uXF.^.7XD.4XlXiXaXyX~.@.a ` -XhXzXxX8X4XaXG.U.^.M.} O.F.> n.G.O.P v E E / ~ / N g.^ ! V.j ",
"!.cXbXoXu.| / K } | / L E U Y K tXO.T O.r.Y E ..l.r.O.!. XkXyXJ &.nX7X&.O.M.W | 7.^ | P E J M.# R.] T y.9.6.Q ..J E Q ! 5.! K C ",
"'.V.oX^.z.t.K -.O.U U } U -.} c !.R N X.O.d.M.7.q.k.0.V.} t.&Xx =.vXt.Q.A.H.M.V.] | | e.t.X. .& E ' B N q.].j.q.Q e.Q 7.g.^ v.Q ",
"t.].-.5XZ.b.W Y } } E J O.J } t :.M.} } ).).9.P.v.Y.0.s.p.^ !.b Z.vXoXI.r.O.M.e.-.s.7.v.s.>.W < { |.E | b U o.q.7.4.7. .| 7.t.e ",
"N.v.#Xz./.d.B.| L X.U O.| J } L W./.v.b.v.k.w.K.g.A.-.{..X#XW.^ U.kXW.l.w.Q.I.I.x.].#XI.^.XXy.r U.!.z...X.P o.r.7.Z.V.X.M.t.U 8 ",
"s.l.k.s.r._.W.z.O.t.B.-.M.'.l.p k.E o.b.V.t.k.z.W.;.A.7.k.Z...: A.K..XQ.OXI.Q. X{.I.'.v.y.7.7.5 d.Q 7.s.a.O.M.U / -.-.} J l J , ",
"# p q 3 < n 5 d < 8 < 0 h v 5 X + 9 r 0 4 8 < > % 8 e d a 2 , . O d b & 9 6 - ; p g i s a p 3   . < 0 < , > @ # > 4 h 4 6 % :   ",
"J.;.F.!.B.R s.+ < o. XB.>.@.=.#.C.@.D.B.<.*.X.@ @ F K | G.H.D.4XH.B.V.F.:.H.t.@ @ *.H.~.D.=.| F.S.-.M.H.*.} U . & _ 2.4XS.&.V.m.",
"2X2.-X5X7XJ.-.> ' N.N.J.~.6XiXiX,X5X9XeXeX5X-.q B C.lXcXuXJ.wX~.F.F.:.O.] M.;X8 | ~.sXsXsX,X5X7XiX8XtX>.N.O.} & | *.>XS.~.2.1.G.",
"A t.T G r.A.%., M.6X-X-X8X4X-.%./ O.&.P.].cXJ.k %.xX+Xt.4.X.' r.O.v L N ../ V...H.sXH.b.d.3.-...y.a.G.rXB.| | q P.dXJ E { N T E ",
"W -.r.`.>.4X/ 1 M.*X*X4XN.r...t._ *.v.| U s.Q.h XXfXE t.7.s.K.I.k.O./ ~ 7.o.| [ qXdX4.0.w.t.M.d.9.U ] %./.l.Z.4 x.dXf.K P 9.r.{ ",
"o.] ..7.x.E / 4 B.yXrXb.t.| } 9.k.7.Z.o.V.E K.r dXqX} } M.q.{ l.k._.M.E { 9.` K _.fXr.9.9.E ..Z.| o...B.}.cXd.y b..X..r.w.J ~ o.",
"~ / ..W.o.J ~ p %XvXI.g.z.I.).U i.g.C P | M.M.q | +XW.F.W.oXg.0.w.y.j.K.7.z.I.h |.$X$XW.v.v.v.9.j.o.{ L.q.x.#Xd .XcX{ { 0.z.q.q.",
"M.N.L.M.6.w.! & {.$XjX$Xk.u.Y.'.d.F.!.Z.A.n.P , | L '.d.w.|._.b.k.w.F.I.d.l.N - z.j.{.$X|.{.Z.r.W.v.r.7.g.^.g.< -.{.+XP.I.c.|.q.",
"e < 4 0 i 5 = . O f C q.j.[ 3.8.k k l e & & %   $ : 4 0 h 7 i s ; < 3 4 n i = O O ; g h g s V { 8.N l z e m ;   . > r h B C [ 6.",
"@ M.| X.N.B.n.| P.!.4X2XD.+XI.* > R +.C.2.J.!.,X;X2XR.~.~.J.| + 4 V.-.O.F.J.*.} -.B.7X~.2.2X-.. 3 ' Z.*.,.D.=.*.B.;X1.$.S.~.&.+ ",
"%.G.tXfXcX5X~.7X7X(.~.$.:.J.y.q @.J.xX6XP.| O.-.G O.} P } S.' < &.!.iXtXgXhX-X,X-XN.W | T O.M., K.2XsXdX%X-.2./.n.t.| +.*.%.*.q ",
"F.,XaXM.| -.M.} } -.w.t.| )  .8 (.xXXXE a.w.| ~ 7.P D J P / s.J N.tXaXaX(.+.T F K } [ / E r.} r !.hXt.~ ] L ~ ' ' Y Y | / O.-.t ",
"Q.vXK.| / | -.' V...d.z.a.g.U , B.6XM.T } Q ~ 0.N ..J ~ 0.~ | q 4XvXlXB.-.-.O.E U { 7.6.' } *., $XcX0.z.x.~ O.x.! Y K T / -.P.a ",
"].&Xz.N.O.} U -...Q E / t.t J < S.~.+Xt.y.B.w.c.! V.-.-.u.l.W.4 L.!.N.~.!.V.N.t.| -.V.s._ +.F.2 {.kXb.6.y.Q b.s.r.{ d...| o.[ a ",
"_.(.] K.r.T Q t.P...e.M.J ^ J 3 ;.} y.].{.).x.K.O.Q ! [ Q r.s.% A.V.| N.!./.r.| -.M.| d./ ..t.a |.kXq.v.q.v.{ ] k.i.I.x.v.6.8.h ",
"e !.O.|  Xc.W.z.N./. X^.c.w.g ; y.M C 6.V s.K.v.s.b.v.k.k.P.u.o o.~ / } X.N.+XN.Z.L.X.k.P.Z.] 6 l.x.{.'.v.k.w.v.$X'.l.6.C { r @ ",
". @ j t r j k v j N v s 4 p a . * = p a 3 h h s d a 0 N b j @ . # 6 r 4 q 4 q t l d k B m d ; O # p d 1 0 q 4 j m ; 3 : : > %   ",
"S.(.R./.!.4Xt.+ 3 M.R.B.;.-.Z.1.T.D.~.B.;.-.G # X 1 q < 3 0 8 q 0 6 4 6 0 8 3   6 >.H.2.G.Q.K.yXoX=.#.-.( *.} o % N.1.C.N./ R -.",
"<.B.} | Q K %.q n.-.S.J.7XaXuXlXuX2XyX`.cXXX~ 4 p N o.| O.T ` / D E P N Q P J $ &.eXnX1X=.~.uX^.1X7XrX6X8X8X:., R 2.uX5X7XpX*X*X",
"D / P ..O.| -.E H.%X|.(.5XXXV.I.-.+.~ _ o.P.F.0 9 O.| o.} ^ C ~ e.P z J J l / 6 1.lXO.N.*.A T U | Y } T s.x.D.t N.2X>XhX2Xn...U ",
"..! / N 0.[ g.b J.yXgXcX-.} E E v.v.7.7.9...-.s r U U I N ..w.[ 5.I ! ! J J / , C.P.(.B.O.Z.Y S U | ~ T | / ,.r F.6XN.wXM.N.' E ",
"d.7.0.w.w.3.q.z I.cXqXQ.T %.] ~ k.q.w.s...~ M.n 9 / ^ ^ ~ { 0.q.q.u.C } -.] U < H.C.d.rX| O.%./ K U L } / E t.n 9.7X!.2X!.N.I.r.",
"y.y.7.s.{ [ 7.0 &XbX%.q.e.y.r.g.w.w.{ s.N w.z.h p 7.j.o.B q.k.0.6.! k.o.~ I L 3 P.u.| n.iXT.B.V.] H L ] / t.t.k 7.&X$XXXJ.P.r.j.",
"|.'.'.k.b.b.j.3 v.v.[.B.Q.u.Q.).b.^.9.l.l.b.6.p u h w.k.l.9.z.).l.q.7.b B c k 3 o.~ s.o.l.V.o.B.J.M. .O.O.O.t 5 9.N.H.I.!.&X{.|.",
"0.V V d v d - X O g z z 8 b r ~ s V s h h 0 = . X = = = i 9 h g p f - p < 3 & . @ p n h 0 > : 5 8 J 8 6 < < %   @ 4 B n f s V C ",
"+ W 2X^.P.&.N.-.t.M.M.*.F.A.t.o 5 O.} @.;.-.E U R ..M.-.-.t.W + v Q.H.1.^.2X~.2.=.,.4XG.-XG.+.3 @ J =.( B.J.%.| *.;.J.B.P.B.T # ",
"E ~.>X.XqXG.J.aXzXfXlX7XH.:...< F.H.tXtX~.8X7XpX:X1X0XtXC.1.} 9 2.*X3XxXyX5XtX,X,X>XfXkX~.!.O.0 2 %.1X0X0X4XH.H.6X>X-X>XqX5X} j ",
">.iXo.| O.} E E / *.;.XXJ.M.| q |.dXlX2XqXyXaXrX7X .B.%XP.{.d.< yX&X@X_.M.s.W -.v.a.r.].4XM.N.J ` >XG.uXC.K G ~ J / T Y *.J.H.q ",
"/.Q./ U F ~ ' W M.| -.R.dXM.| 8 4XyXw.E o.-.F.V.} t...*.cX.Xq.p [.yXv.d.V.N.z.s.Z.C.Z.x.;.| O.t B.H.tXF./ O.X.K | M.a.%...q.XXc ",
"J.fX| O.E } | M.} } t.P.C.#X7.s fXb.W | ..-.w.o.I.9.x.k.l.@X+Xp #X Xk.O.| e.l.l.K.[.A.b.^.| } e -.J.B.tXO.N.M.} / ..r.M. .o.W.C ",
"].Q.N.| X.| ....U w.{ 7.I.].y.p &X|.K a.z.} v...v.r.o.I.w.k.|.N %X%Xx.M.o.o.M.| b.k./.M.K.o.U 8 !.(.Z.H.H.N.-.y.} U O.U O.| t.l ",
"v...V.F.B.F.5XI.'.9.v.'.{.z.r.h d.L.!.d.P.{.V.I.I.s.I.].&X&Xl.u '.%XK.s.K.'.).K.K.).].(.L.r.E 6 U } O.} } .._._.'.K.-.} } ~ u.p ",
"# : 0 J e x N C { w.C 3.N k f O = 0 b l t 8 r d 9 4 k h C 8.; . ; Q w.U C r.k.w.6.3.V b k q 8 3 . 9 8 0 3 ; i s f m V r q Q & . ",
"H.N.F.&.!.1.E @   & 0 q q < 1 8 < 3 o % 3 8 <   @ w n.7XXXD.D.J.;XB.C.%X.X1...+ < O.y.%.| A.N.N.F.N.J.#.&.-...# $ >.K.H.,./ +.F.",
"1X,X<XvXnX8XG.2 & J L B z c ~ E A T S %./ P t & L !.,X>.O.M.| K.B.S.F.%X+X8XN.9 -.!.tX5X7X1XwXrX/.H.qX!.R.>X-.- +.%.$.~.;X<X9XgX",
"t.M.O.| U / =Xw 0 b N J l C { b U D W } B.O.Y 4 | lXW W ] U ] W -.O.l.| O.N.!.l O.5X8X/.9XJ.| T ] t./ K ~ } 4X0 O.F.G.qXnXwX^.4X",
"O.O.-.t.O.T C.8 6 r P L F W J / L / Q r P.P c < &.kX|.o.x.k.v.j.O.t...| R O.-.< N.4XrXsXV.| } / | -./ | / E | t B.tXsX~.N.| >...",
"} o.| } P E !.q e r F J / l J T | K P N r.0.w.i n.I.$X$Xz.v.b.l. .M.| t.C.M.H.J O.aXvXyXK a.O.} N.~ T G O.P / U ;XlX!.-.-.B.} E ",
"P d.| | O.} O.1 v k J J P H Q ~ Q Q Q C w.N V x W.t.t.b.%X|.b._.t.a.M.d.x.Q L.L V.OXXX7X| ]  .t.| O.} } -./ O.t dXvXO.B...o.| ~ ",
"t.B.Q.O.N.B.~ , 3 L |  .t.V.-./ | 7.z M.0.6.k - k.6.w.i.x.Y.|.%Xt.S.L.K.[.XX .> O.K.2X~.oX[.x.qX-.-.O. .E n.!., M.gXB.!.!.O.H.a.",
"k q r r r 8 +     & 8 3 < 3 8 < q o 4 3 , ; =   X ; - 0 g i p V t l c 8 0 h < . + 0 M V C 6.k b { b z k 0 l >   o < r q k v q l ",
"& _ ( N.rXXXJ.A.@.A.fX~.G.4XB.# @ | M.-.} N.C.O.N.| H.F.F.!.O.+ . , q 8 0 9 8 3 0 q q q 9 4 3   % G -.;.;X!.C.n.;.H.rX#XK.^.Z.+ ",
"N.4XiXpX/.1.&.X.>.>.+.d.t.>.S.6 -.5XyX%X7XdX^.G.2X X:.I.B.B.~.e 8 r r C r r t Z w L L D } } l # n.5XhX1X-XU.OXXX4X2XlXdX Xd.~ q ",
"V.lXJ.} X.Y K Q i.-.| / *...B.D K.dXr.K ! G T ' P -.O.E r.r.{.B r r 3.L L T Q ~ t A E P  .*.*.8 ~.tXE } 7.n.-. ...C.l.! ).P.d.t ",
"l.bXA.X.W | -.9.d.k.9.d.9.{ V.a A.qX} ` D S ' e.y.P O.u.7.r.].j M 6.{ ~ ! 6.C 6.L J H | / u.W q !.:XO.-.F.].Q.a.-.-./.I.^.b.X.n ",
"s.&X XN.| | 7.o.Q 6...} 7.O.c.6 Z.G.O.-.d.o.o.W V.w. .V.d.9.H.g 9 ! / w.] ^ 6.L [ { 6.3.P./ L 1 ~.G./ O.Z.| v.d.a.-.K.I.W.[ ^ s ",
"s.j.l.!.C.!.-.-...A.} N.N.P.A.h 1.^.Q.N.a.b.9.d.o.t.Z.~.H._.6.x p 6.4.q.4.C C 4.Q b { l.7.K } 4 R.&X/ -.o.t.M...{ j.t.u._.[.q.p ",
"9.Q ~ ~ L A.J.!.A.V.!.V./.O.6.a L.d.V.Q.[.|._.I.A.-.o...w.w.C 9 ; z k.w.j.w.u.6.e.{ 7.[ Q l l 1 A.-.4X!.N.L.}.b.F.N.XX[.%X#Xy.a ",
". & 8 4 % , 4 4 q 4 & : 0 n 9 O + 4 g d 9 d j 0 0 4 e - 4 0 0 .   = 9 9 5 6 q 0 4 < ; 7 i 9 < O + & e 8 c g a B c l h j j c 1 . ",
"=.@.;.&.B.U J + > @.8X/./.B.!.yXD.$.-XN.D.~.-.+ : @.S. X!.U.N.%./ U | E.Z.| K + : S.6XJ.>XJ.U.5XD.2XF.1.N.S.X.. & -.>X;X!.&.} D.",
">XG.T.B.&.*.' : @.D.( F T T ~ Y E } W F ' N.H.e W ;.sXqX@XiXqXtXtXwXJ.&.C.-.P 4 O.D.eX^.!.m.O.*.M.;.O./ 0.0.-.t O./.&.N.(.4XtXD.",
"K ;.7XF.,.<X} 4 2.K U / W K K K X.D Y E P A n.1 N.aX-.E t.q.} a.x.P.;X(.B.N./ J P.8XD.O.K L / o.O./ } K } K Q J -XJ.O./ E ..t.O.",
"C.-./ ~.rXiXH.< (.O.} t.F } T } ~ Y U / O.N.O.% ;.8XE ~ J u.E b.g.9.l.W.~.R.] < !.$X&XK.] y.U Y O.-.X.%.K F R t tXn.| N.o.t.s.>.",
"*.V.B.O.} !.rXt yX-.r.-.-.E } | | T } / -.r.| 4 O.sX| O.U K 7.O.z.'.c.l.b. Xo., _.cX}.q.q.Q 9.w.U X.O.O.X.U 7.K H.E.| o.! *.| o.",
"{ N.E -.| M.M.t F.6Xu.*. .M.O.} v.i.b.{._.Q t 1 !.aXM.} } *.d.c.s.I.l.q.| V.rXr $XcXZ.].].x...O.' *.7.E X.O.I.z s.uXI.d.y.l.'.y.",
"|.u./.P.t.H./ < ~ Q.|.W.P.N.A.u.'.l.Z.~ Q U r > } M./.H.-.r.y.v.-.z.z.Z.-.P.} : X.K.v.j.{ K.M.9.E { P.s.S.M.j.a 6.u.d.].P.}.$X|.",
"0.z r v e J q o # 8 n h M v m - 1 j q 8 4 9 3 o * = z N 0.4.0.V 7.8.6.s.J 0 3 o $ 0 N p f p a p 8 4 p z e a 8 O = a 9 l v v C C "
};
